<?xml version="1.0" standalone="no"?>
<!DOCTYPE svg PUBLIC "-//W3C//DTD SVG 20010904//EN"
 "http://www.w3.org/TR/2001/REC-SVG-20010904/DTD/svg10.dtd">
<svg version="1.0" xmlns="http://www.w3.org/2000/svg"
 width="72.000000pt" height="72.000000pt" viewBox="0 0 72.000000 72.000000"
 preserveAspectRatio="xMidYMid meet">
<metadata>
Created by potrace 1.14, written by Peter Selinger 2001-2017
</metadata>
<g transform="translate(0.000000,72.000000) scale(0.100000,-0.100000)"
fill="#000000" stroke="none">
<path d="M84 678 c-15 -24 -40 -65 -56 -91 l-28 -48 0 -257 c0 -187 3 -261 12
-270 17 -17 679 -17 696 0 9 9 12 82 11 273 l-1 260 -52 85 -52 85 -252 3
-252 2 -26 -42z m531 -68 c19 -30 35 -58 35 -62 0 -5 -130 -8 -290 -8 -160 0
-290 3 -290 6 0 10 61 108 72 115 4 3 105 5 224 5 l215 -1 34 -55z m-411 -187
c2 -10 7 -33 11 -50 15 -75 108 -127 185 -104 53 16 99 64 106 111 9 54 19 68
41 54 53 -33 -11 -165 -101 -208 -81 -38 -187 -13 -248 59 -24 28 -51 111 -43
135 8 25 42 26 49 3z"/>
</g>
</svg>
